# xmcd CD database generated by RipIT
#
# Track frame offsets:
# 150
# 13222
# 24830
# 37665
# 50560
# 64789
# 76452
# 88212
# 102287
# 112070
# 126600
# 138852
# 151680
# 163557
# 176152
# 190047
# 202009
# 231092
# 245225
# 257475
#
# Disc length: 3600 seconds
#
# Revision: 0
# Processed by: cddbd v1.5.1PL0 Copyright (c) Steve Scherf et al.
# Submitted via: RipIT 3.3.3 www.suwald.com/ripit/ripit.html at Sat Apr 30 10:37:29 BST 2005
#
DISCID=100e0e14
DTITLE=Various Artist - Blues Box
DYEAR=1900
DGENRE=Blues
TTITLE0=Big Mabel Smith - Too Tight Mamma
TTITLE1=Screamin' Jay Hawkins - The Whammy
TTITLE2=Big Bill Broonzy - Ride Alberta, Ride
TTITLE3=Brownie McGhee - Goodbye Now
TTITLE4=Amos Milburn - Bye Bye Boogie
TTITLE5=Muddy Waters - You're Gonna Miss Me
TTITLE6=Sonny Boy Williamson - Mellow Chick Swing
TTITLE7=Blind Boy Fuller - Rag Mamma, Rag
TTITLE8=Lightnin' Hopkins - Feel So Bad
TTITLE9=John Lee Hooker - Sally Mae
TTITLE10=Big Maceo Merriweather - Broke And Hungry Blues
TTITLE11=T-Bone Walker - Hypin' Woman Blues
TTITLE12=Champion Jack Dupree - Big Time Mamma
TTITLE13=Billy Boy Arnold - Riding The El
TTITLE14=Joe Swift - Lovin' Baby Blues
TTITLE15=Jimmy Rushing - Do You Wanna Jump Children
TTITLE16=Red - Bye And Bye I'm Gin' To Sec The King
TTITLE17=Homesick James - My Baby's Gone
TTITLE18=Sunnyland Slim - House Rock
TTITLE19=Memphis Slim - Pacemaker Boogie
EXTD=
EXTT0=
EXTT1=
EXTT2=
EXTT3=
EXTT4=
EXTT5=
EXTT6=
EXTT7=
EXTT8=
EXTT9=
EXTT10=
EXTT11=
EXTT12=
EXTT13=
EXTT14=
EXTT15=
EXTT16=
EXTT17=
EXTT18=
EXTT19=
PLAYORDER=
